# File created by Blade
# Date/Time:  Mon Nov 18 17:26:10 2013
# Frame Rate: 100.000 fps
#------------------------------------------------------
:FULLY-SPECIFIED
:DEGREES
10
root -33.447891 -1.143854 42.846834 5.743931 2.234504 35.807865
Spine 18.606534 -0.029729 1.266938
Spine1 6.644474 0.129984 3.642421
Spine2 -22.699297 0.622075 1.122469
NeckDummy -0.004415 0.443912 0.981637 13.389801 -1.562586 1.353500
Neck 3.833505 -10.372811 41.045119
Head 0.212290 -0.110264 -0.131319 0.218938 1.156172 0.741062
LeftShoulderDummy -0.024818 0.475590 1.014158 13.393805 -1.640526 1.490709
LeftShoulder 6.783412 -8.555007 18.896310
LeftArm 5.326829 41.006553 22.257371
LeftForeArm 54.739116
LeftForeArmRoll 17.865709
LeftHand -34.041325 -23.325337 9.772310
LeftHandThumb1 15.006838 1.862260
LeftHandIndex1 -2.115481 37.586677
LeftHandPinky1 -0.688363 57.322157
RightShoulderDummy -0.009676 0.421277 0.940926 13.384789 1.585491 -1.345006
RightShoulder 14.090354 3.844110 11.597802
RightArm -9.368270 62.186002 13.688413
RightForeArm 103.492373
RightForeArmRoll 38.950979
RightHand -42.546067 -17.962980 14.387199
RightHandThumb1 11.290749 15.403107
RightHandIndex1 10.438812 58.722259
RightHandPinky1 13.928399 72.667722
LeftUpLeg 6.101411 15.240540 -41.015146
LeftLeg 65.549385
LeftFoot 0.277202 -0.907363 -1.766375 -26.383541 -2.953085 -8.399659
LeftToeBase -4.331445
RightUpLeg -18.158483 9.442720 -31.332947
RightLeg 41.662142
RightFoot -0.419408 0.582069 0.749424 -11.026741 8.529783 -18.947672
RightToeBase -4.241359
11
root -33.521694 -1.071981 42.729273 5.787127 2.052402 34.353199
Spine 18.588018 0.025798 1.262167
Spine1 6.622990 0.157997 3.676968
Spine2 -22.715605 0.543083 1.042084
NeckDummy -0.007535 0.453494 0.986950 13.334848 -1.500473 1.235449
Neck 4.124140 -10.244001 41.838240
Head 0.219904 -0.127437 -0.157589 0.599265 1.209363 0.800648
LeftShoulderDummy -0.027728 0.482928 1.018668 13.338968 -1.580562 1.382036
LeftShoulder 6.785187 -8.438754 18.971521
LeftArm 5.413566 41.174669 21.681148
LeftForeArm 55.094436
LeftForeArmRoll 17.349584
LeftHand -34.110240 -23.410847 9.871493
LeftHandThumb1 14.977575 2.343319
LeftHandIndex1 -2.052065 37.834569
LeftHandPinky1 -0.572667 57.547516
RightShoulderDummy -0.014034 0.432760 0.947642 13.330315 1.526593 -1.234198
RightShoulder 13.973684 3.940188 11.567928
RightArm -9.983088 61.891096 13.238294
RightForeArm 103.679052
RightForeArmRoll 38.577841
RightHand -42.772955 -18.079610 14.113942
RightHandThumb1 11.335998 14.992566
RightHandIndex1 9.980743 58.099400
RightHandPinky1 13.678426 71.923941
LeftUpLeg 6.543189 14.681636 -39.585144
LeftLeg 65.990273
LeftFoot 0.281414 -0.893865 -1.764822 -26.450762 -2.963499 -8.522733
LeftToeBase -4.489446
RightUpLeg -18.522560 9.142798 -31.534736
RightLeg 40.712276
RightFoot -0.419771 0.584988 0.743098 -11.536096 7.806108 -18.436847
RightToeBase -4.740734
12
root -33.586883 -1.011779 42.619459 5.811209 1.836623 32.914853
Spine 18.550221 0.059620 1.236620
Spine1 6.597523 0.171949 3.656302
Spine2 -22.701789 0.509573 1.063131
NeckDummy -0.008037 0.457769 0.989059 13.283638 -1.520899 1.309369
Neck 4.537419 -10.259968 42.698231
Head 0.227527 -0.141837 -0.179856 0.920684 1.316049 0.777706
LeftShoulderDummy -0.027431 0.488081 1.021403 13.288444 -1.596878 1.442801
LeftShoulder 6.895207 -8.470496 19.113246
LeftArm 5.583307 41.322697 21.241853
LeftForeArm 55.426459
LeftForeArmRoll 16.771302
LeftHand -34.175043 -23.468671 9.841293
LeftHandThumb1 15.021959 2.466717
LeftHandIndex1 -2.220405 38.085393
LeftHandPinky1 -0.371952 57.819860
RightShoulderDummy -0.015832 0.435971 0.949554 13.278771 1.548661 -1.303434
RightShoulder 13.802158 4.204230 11.606988
RightArm -10.464090 61.505632 12.977062
RightForeArm 103.849146
RightForeArmRoll 38.052347
RightHand -42.903823 -17.954865 13.785307
RightHandThumb1 11.045053 14.354273
RightHandIndex1 9.189457 56.833202
RightHandPinky1 13.443245 71.114898
LeftUpLeg 6.767924 14.041868 -38.069332
LeftLeg 66.152939
LeftFoot 0.274361 -0.901044 -1.757615 -26.284286 -2.753597 -8.704591
LeftToeBase -4.574138
RightUpLeg -18.857646 8.807831 -31.725286
RightLeg 39.836486
RightFoot -0.425552 0.591617 0.737433 -12.045404 7.033020 -17.994777
RightToeBase -5.157117
13
root -33.653573 -0.961637 42.515266 5.779986 1.557025 31.586928
Spine 18.523114 0.122098 1.175125
Spine1 6.582408 0.188961 3.558367
Spine2 -22.681027 0.457765 1.205541
NeckDummy -0.011001 0.461892 0.991117 13.232260 -1.642279 1.515822
Neck 5.028827 -10.269739 43.483422
Head 0.238977 -0.160831 -0.198607 1.234553 1.388826 0.879359
LeftShoulderDummy -0.030022 0.496381 1.026301 13.236812 -1.718158 1.649538
LeftShoulder 7.099678 -8.603009 19.197100
LeftArm 5.699661 41.421923 20.808630
LeftForeArm 55.770932
LeftForeArmRoll 16.289113
LeftHand -34.186037 -23.267055 9.749061
LeftHandThumb1 14.989538 2.193324
LeftHandIndex1 -2.368064 37.901810
LeftHandPinky1 -0.712115 57.716209
RightShoulderDummy -0.019985 0.436158 0.949445 13.226890 1.674156 -1.517786
RightShoulder 13.662571 4.548890 11.661195
RightArm -10.637997 61.084572 12.919210
RightForeArm 103.964709
RightForeArmRoll 37.977225
RightHand -43.130741 -17.795045 13.653216
RightHandThumb1 11.127464 14.133984
RightHandIndex1 8.853477 55.223229
RightHandPinky1 12.892746 70.298603
LeftUpLeg 6.748260 13.342042 -36.440755
LeftLeg 65.906744
LeftFoot 0.269598 -0.885175 -1.740767 -26.000662 -2.332552 -8.622061
LeftToeBase -4.542118
RightUpLeg -19.123138 8.415983 -31.849007
RightLeg 39.019866
RightFoot -0.427942 0.595071 0.728581 -12.537132 6.395241 -17.544026
RightToeBase -5.871121
14
root -33.722698 -0.925534 42.420749 5.682795 1.284396 30.293266
Spine 18.534906 0.126070 1.125229
Spine1 6.589388 0.211939 3.445916
Spine2 -22.644934 0.452636 1.236061
NeckDummy -0.011611 0.461906 0.990287 13.201595 -1.668018 1.538108
Neck 5.340998 -10.124357 44.265214
Head 0.249916 -0.175229 -0.207133 1.429901 1.467845 0.978231
LeftShoulderDummy -0.030116 0.497153 1.026265 13.206046 -1.744601 1.677760
LeftShoulder 7.138007 -8.510196 19.275759
LeftArm 5.819296 41.570298 20.325441
LeftForeArm 56.045289
LeftForeArmRoll 15.582636
LeftHand -33.897657 -23.317776 9.560561
LeftHandThumb1 15.342950 2.297988
LeftHandIndex1 -2.300349 38.213880
LeftHandPinky1 -0.472056 58.116767
RightShoulderDummy -0.021965 0.436056 0.948233 13.195615 1.703232 -1.544656
RightShoulder 13.496827 4.631993 11.667579
RightArm -10.805233 60.630706 12.790257
RightForeArm 104.047230
RightForeArmRoll 37.922967
RightHand -43.218986 -17.036902 13.256752
RightHandThumb1 11.050921 13.553198
RightHandIndex1 7.813562 53.178721
RightHandPinky1 12.333926 68.156052
LeftUpLeg 6.510121 12.594325 -34.708401
LeftLeg 65.295973
LeftFoot 0.252074 -0.882840 -1.721192 -25.734689 -1.826544 -8.083811
LeftToeBase -4.602420
RightUpLeg -19.272033 8.046797 -31.953763
RightLeg 38.312556
RightFoot -0.433903 0.602401 0.732654 -13.064157 5.716356 -17.145576
RightToeBase -6.477933
15
root -33.797682 -0.901955 42.323705 5.608741 0.996982 29.128570
Spine 18.549913 0.108153 1.064771
Spine1 6.586219 0.235221 3.305139
Spine2 -22.623631 0.541620 1.218396
NeckDummy -0.005851 0.464753 0.991765 13.162789 -1.641886 1.542467
Neck 5.592427 -9.956819 44.931364
Head 0.254987 -0.190606 -0.207873 1.497295 1.532038 0.982389
LeftShoulderDummy -0.023364 0.500227 1.026933 13.165876 -1.712145 1.665201
LeftShoulder 7.182525 -8.388491 19.417501
LeftArm 5.940807 41.616478 20.162332
LeftForeArm 56.149121
LeftForeArmRoll 15.178025
LeftHand -33.804215 -23.430222 9.421282
LeftHandThumb1 15.251686 2.828702
LeftHandIndex1 -2.469454 38.608182
LeftHandPinky1 -0.491105 58.436832
RightShoulderDummy -0.017247 0.439670 0.950454 13.155262 1.678305 -1.545006
RightShoulder 13.400664 4.615172 11.726841
RightArm -10.796794 60.051370 12.895627
RightForeArm 104.143650
RightForeArmRoll 37.362355
RightHand -43.264816 -17.414667 13.047000
RightHandThumb1 10.796016 13.643940
RightHandIndex1 7.856539 52.615877
RightHandPinky1 12.292433 67.433173
LeftUpLeg 6.020789 11.775337 -32.965996
LeftLeg 64.248853
LeftFoot 0.174364 -0.866155 -1.723733 -24.428432 -1.088341 -7.490001
LeftToeBase -7.844613
RightUpLeg -19.344253 7.672125 -32.110721
RightLeg 37.721721
RightFoot -0.436220 0.602292 0.724655 -13.408564 5.167942 -16.749552
RightToeBase -7.128966
